<svg width="68" height="32" viewBox="0 0 68 32" fill="none" xmlns="http://www.w3.org/2000/svg">
<path d="M0.024 23H6.312L9.048 17.276L11.772 23H18.048L13.092 14.984L17.892 6.8H11.616L9.048 12.668L6.468 6.8H0.18L4.956 14.984L0.024 23ZM17.664 23H30.48V19.304H23.148V16.616H29.868V13.1H23.148V10.496H30.48V6.8H17.664V23ZM31.14 23H36.588V10.652H36.648L41.232 23H49.836V6.8H44.376L44.328 18.86H44.292L39.828 6.8H31.14V23ZM58.848 23.144C62.128 23.144 64.352 22.418 65.52 20.966C66.688 19.514 67.272 17.492 67.272 14.9C67.272 12.3 66.688 10.274 65.52 8.822C64.352 7.37 62.128 6.644 58.848 6.644C55.568 6.644 53.346 7.368 52.182 8.816C51.018 10.264 50.436 12.292 50.436 14.9C50.436 17.492 51.02 19.514 52.188 20.966C53.356 22.418 55.576 23.144 58.848 23.144ZM58.848 19.448C57.944 19.448 57.226 19.234 56.694 18.806C56.162 18.378 55.896 17.076 55.896 14.9C55.896 12.676 56.162 11.36 56.694 10.952C57.226 10.544 57.944 10.34 58.848 10.34C59.76 10.34 60.482 10.544 61.014 10.952C61.546 11.36 61.812 12.676 61.812 14.9C61.812 17.076 61.546 18.378 61.014 18.806C60.482 19.234 59.76 19.448 58.848 19.448Z" fill="#E3E2E2"/>
</svg>
